<svg width="64" height="58" viewBox="0 0 64 58" fill="none" xmlns="http://www.w3.org/2000/svg">
<path d="M61.2051 0.967824C58.3171 -0.587254 55.0959 2.41183 53.2076 4.18906C48.8758 8.40998 45.2102 13.2974 41.1002 17.7405C36.546 22.6278 32.3251 27.5152 27.6599 32.2917C24.994 34.9576 22.106 37.8456 20.3288 41.1779C16.33 37.29 12.8866 33.0691 8.44356 29.6259C5.22233 27.1822 -0.109369 25.405 0.00170827 31.292C0.223862 38.9565 6.99956 47.1762 11.998 52.3967C14.1085 54.6182 16.8854 56.9508 20.1066 57.0619C23.9943 57.2841 27.9931 52.6188 30.3257 50.064C34.4358 45.621 37.7681 40.6223 41.5445 36.0683C46.4319 30.0702 51.4304 24.1829 56.2067 18.0737C59.2058 14.2971 68.6473 4.96642 61.2051 0.967824ZM4.88892 30.8477C4.77784 30.8477 4.66676 30.8477 4.44461 30.9586C4.0003 30.8477 3.66707 30.7365 3.22276 30.5143C3.55599 30.2922 4.11138 30.4032 4.88892 30.8477Z" fill="#00CC00"/>
</svg>
