<svg width="76" height="64" viewBox="0 0 76 64" fill="none" xmlns="http://www.w3.org/2000/svg">
<path d="M21.2146 28.8194C21.4351 29.4555 22.0341 29.8822 22.7073 29.8822H27.1247C27.643 29.8822 28.129 29.6278 28.4246 29.2011C28.7201 28.7743 28.7873 28.2299 28.604 27.7447L18.674 1.38527C18.4425 0.769692 17.853 0.361938 17.1955 0.361938H11.7675C11.1148 0.361938 10.5284 0.764161 10.2937 1.37342L0.105425 27.7723C-0.0810667 28.2583 -0.0178491 28.8059 0.276903 29.2358C0.571656 29.6649 1.05922 29.9217 1.58077 29.9217H5.58719C6.24781 29.9217 6.8389 29.5108 7.06885 28.8921L9.1985 23.1653H19.2525L21.2146 28.8194ZM11.084 17.7294L14.3665 7.83269L17.4484 17.7294H11.084V17.7294Z" fill="#01C38D"/>
<path d="M31.38 29.8806H39.2901C41.8773 29.8806 46.6953 29.8806 49.7779 26.3341C51.469 24.3728 51.6666 20.5236 51.0494 18.5844C50.3888 16.6918 49.1292 15.4014 47.0169 14.4808C48.6092 13.6542 49.7329 12.4934 50.3627 11.0181C51.3165 8.76039 50.8337 5.52286 49.2295 3.47145C47.0319 0.728588 43.2238 0.358765 39.7872 0.358765L31.3784 0.362716C30.506 0.362716 29.7996 1.07075 29.7996 1.94316V28.3002C29.7996 29.1734 30.5068 29.8806 31.38 29.8806ZM43.758 22.5008C43.295 23.4704 42.3254 24.3665 38.3758 24.3665H37.3612V17.4821L38.7939 17.4813C41.1416 17.4813 42.5118 17.7144 43.4799 18.978C44.1547 19.8741 44.1887 21.6276 43.758 22.5008ZM43.1654 10.163C42.4905 11.3594 41.5541 12.0066 38.6516 12.0066H37.3612V5.83658L38.8207 5.83579C40.8824 5.88636 42.0788 6.10683 42.8627 7.14597C43.5012 8.0247 43.4672 9.49925 43.1654 10.163Z" fill="#01C38D"/>
<path d="M75.6055 24.76C75.581 24.2606 75.3218 23.8022 74.9054 23.5249C74.4913 23.2459 73.9666 23.1803 73.4972 23.3479C69.7026 24.696 67.0798 24.76 64.6704 23.5517C61.6984 22.014 60.1931 19.4213 60.0682 15.6574C60.0192 12.3622 60.4854 8.7114 64.3022 6.61336C65.4212 6.00094 66.7282 5.69038 68.1901 5.69038C70.1348 5.69038 72.0622 6.26171 73.3384 6.73979C73.8109 6.91917 74.3388 6.85754 74.76 6.58254C75.1828 6.30517 75.4467 5.84368 75.4712 5.34031L75.6134 2.54135C75.6506 1.79854 75.1646 1.12923 74.4455 0.936412C72.8603 0.508902 70.3766 0 67.535 0C64.4745 0 61.794 0.579232 59.5656 1.72505C53.3734 4.9294 52.373 11.0425 52.2339 13.5151C52.0909 15.8076 52.1368 23.6205 58.6482 27.8932C61.7166 29.8688 65.3974 30.2828 67.9443 30.2828C70.1696 30.2828 72.5371 29.9533 74.6122 29.3543C75.3171 29.1505 75.7881 28.4898 75.7525 27.7581L75.6055 24.76Z" fill="#01C38D"/>
<path d="M69.897 33.1553C69.844 32.7357 69.6235 32.3525 69.2869 32.0964C68.9479 31.8396 68.522 31.7305 68.1031 31.7898C51.5891 34.185 37.7413 45.1967 30.7763 51.7571L17.461 36.1929C16.8945 35.5283 15.8964 35.4517 15.2342 36.0175L10.1207 40.3898C9.80143 40.6632 9.60388 41.0504 9.57148 41.4676C9.53908 41.8849 9.675 42.3005 9.94683 42.6174L26.7533 62.2631C27.5917 63.2414 28.7486 63.8459 29.9465 63.9589C30.0809 63.9763 30.2571 64 30.5297 64C31.3508 64 32.9186 63.7851 34.2011 62.3374C34.3615 62.1588 50.4544 44.412 69.4125 41.5925C70.262 41.4661 70.8547 40.6822 70.7464 39.8303L69.897 33.1553Z" fill="#01C38D"/>
</svg>
