<svg width="64" height="62" viewBox="0 0 64 62" fill="none" xmlns="http://www.w3.org/2000/svg">
<path d="M63.9033 23.1799C63.6713 22.4658 63.054 21.9452 62.3109 21.8374L42.5888 18.9703L33.7694 1.09973C33.4369 0.426374 32.7512 0 32.0005 0C31.2495 0 30.5638 0.426374 30.2313 1.09973L21.4119 18.9703L1.68927 21.8374C0.94594 21.9455 0.328605 22.466 0.0966117 23.1799C-0.135382 23.894 0.0579461 24.6779 0.595845 25.2021L14.8671 39.1128L11.4985 58.7538C11.3717 59.494 11.6758 60.2421 12.2831 60.6832C12.8905 61.1245 13.6959 61.1829 14.3605 60.8334L32.0005 51.5605L49.6402 60.8334C49.9287 60.9851 50.2441 61.0598 50.5579 61.0598C50.5597 61.0598 50.5615 61.0598 50.5634 61.0598C50.5634 61.0598 50.5634 61.0598 50.5636 61.0598C51.6531 61.0598 52.5364 60.1766 52.5364 59.0871C52.5364 58.9217 52.5159 58.7609 52.4777 58.6073L49.1338 39.1122L63.4043 25.2018C63.942 24.6781 64.1355 23.894 63.9033 23.1799ZM45.6371 37.0114C45.172 37.4646 44.9598 38.1177 45.0697 38.7577L47.9383 55.4815L32.9187 47.5858C32.344 47.2836 31.6575 47.2836 31.083 47.5858L16.0631 55.4815L18.9318 38.7577C19.0417 38.1177 18.8294 37.4649 18.3644 37.0114L6.21262 25.1668L23.0064 22.7256C23.649 22.6323 24.2045 22.2288 24.4917 21.6464L32.0013 6.43033L39.5108 21.6464C39.798 22.2285 40.3536 22.6323 40.9959 22.7256L57.7889 25.1668L45.6371 37.0114Z" fill="#01C38D"/>
</svg>
