<svg width="64" height="62" viewBox="0 0 64 62" fill="none" xmlns="http://www.w3.org/2000/svg">
<path d="M63.9033 23.24C63.6713 22.5258 63.054 22.0053 62.3109 21.8974L42.5888 19.0304L33.7694 1.15979C33.4369 0.486432 32.7512 0.0600586 32.0005 0.0600586C31.2495 0.0600586 30.5638 0.486432 30.2313 1.15979L21.4119 19.0304L1.68927 21.8974C0.94594 22.0056 0.328605 22.5261 0.0966117 23.24C-0.135382 23.9541 0.0579461 24.7379 0.595845 25.2621L14.8671 39.1728L11.4985 58.8139C11.3717 59.5541 11.6758 60.3021 12.2831 60.7432C12.8905 61.1846 13.6959 61.243 14.3605 60.8934L32.0005 51.6205L49.6402 60.8934C49.9287 61.0452 50.2441 61.1199 50.5579 61.1199H50.5634C51.6529 61.1199 52.5364 60.2366 52.5364 59.1472C52.5364 58.9817 52.5159 58.821 52.4777 58.6674L49.1338 39.1723L63.4043 25.2619C63.942 24.7382 64.1355 23.9541 63.9033 23.24Z" fill="#01C38D"/>
</svg>
