<svg width="64" height="64" viewBox="0 0 64 64" fill="none" xmlns="http://www.w3.org/2000/svg">
<path d="M59.8188 31.943L60.2844 31.9821C62.4716 32.2931 63.9924 34.3182 63.6816 36.5054C62.7304 43.1932 59.6872 49.4088 54.988 54.2615C50.2884 59.1139 44.174 62.3551 37.52 63.5203C30.866 64.6855 24.014 63.7151 17.9452 60.7479C15.0934 59.3539 12.4833 57.5523 10.1888 55.4147L6.82844 58.7751C4.30856 61.2951 0 59.5103 0 55.9467V39.9999H15.9469C19.5105 39.9999 21.2952 44.3084 18.7753 46.8284L15.8504 49.7532C17.5202 51.2724 19.4061 52.5575 21.459 53.5611C26.0106 55.7863 31.1496 56.5139 36.14 55.6403C41.1304 54.7663 45.7164 52.3355 49.2408 48.696C52.7656 45.0564 55.048 40.3952 55.7612 35.379C56.0724 33.1919 58.0976 31.671 60.2844 31.9821L59.8188 31.943ZM46.0548 3.2519C48.9116 4.6486 51.5256 6.45395 53.8232 8.59619L57.1716 5.24772C59.6916 2.72784 64 4.51252 64 8.07615V24H48.076C44.5124 24 42.7276 19.6915 45.2476 17.1716L48.1616 14.2576C46.4888 12.7338 44.5988 11.445 42.5412 10.4389C37.9894 8.21367 32.8504 7.48583 27.86 8.35975C22.8695 9.23363 18.2836 11.6644 14.759 15.3039C11.2345 18.9434 8.95208 23.605 8.23876 28.6209C7.92772 30.8081 5.90256 32.3289 3.71543 32.0179C1.5283 31.7069 0.0074234 29.6817 0.318458 27.4945C1.26956 20.8066 4.31272 14.5913 9.01212 9.73859C13.7115 4.88592 19.8261 1.64487 26.48 0.479665C33.134 -0.685534 39.986 0.284872 46.0548 3.2519Z" fill="#01C38D"/>
</svg>
