<svg width="68" height="67" viewBox="0 0 68 67" fill="none" xmlns="http://www.w3.org/2000/svg">
<path d="M58.4709 25H41.619H26.381H9.52914C5.38895 25 2 28.4773 2 32.619C2 36.7608 5.38895 40.2381 9.52914 40.2381H26.381H41.619H58.4709C62.611 40.2381 66 36.7608 66 32.619C66 28.4773 62.611 25 58.4709 25Z" fill="#018963"/>
<path d="M1.42088 2.20118C2.33094 1.31739 3.56509 0.820899 4.85192 0.820899C6.13875 0.820899 7.3729 1.31739 8.28296 2.20118L33.9697 27.1539L59.6564 2.20118C60.104 1.75092 60.6395 1.39177 61.2316 1.1447C61.8237 0.897629 62.4605 0.76758 63.1049 0.762141C63.7492 0.756701 64.3883 0.875981 64.9847 1.11302C65.5811 1.35006 66.1229 1.70011 66.5786 2.14274C67.0343 2.58538 67.3946 3.11174 67.6386 3.69111C67.8826 4.27048 68.0054 4.89125 67.9998 5.51721C67.9942 6.14317 67.8603 6.76178 67.606 7.33694C67.3517 7.91211 66.982 8.4323 66.5184 8.86718L40.8317 33.8199L66.5184 58.7726C67.4025 59.6617 67.8916 60.8526 67.8805 62.0886C67.8695 63.3247 67.3591 64.5071 66.4593 65.3812C65.5596 66.2552 64.3424 66.751 63.0699 66.7618C61.7975 66.7725 60.5716 66.2974 59.6564 65.4386L33.9697 40.4859L8.28296 65.4386C7.36768 66.2974 6.14182 66.7725 4.86939 66.7618C3.59696 66.751 2.37977 66.2552 1.48 65.3812C0.580218 64.5071 0.0698385 63.3247 0.0587814 62.0886C0.0477244 60.8526 0.536875 59.6617 1.42088 58.7726L27.1076 33.8199L1.42088 8.86718C0.511091 7.98312 0 6.78424 0 5.53418C0 4.28412 0.511091 3.08524 1.42088 2.20118V2.20118Z" fill="#CC0000"/>
</svg>
