<svg width="68" height="66" viewBox="0 0 68 66" fill="none" xmlns="http://www.w3.org/2000/svg">
<path d="M51.9161 3.49829V13.4215H42.7444C39.8427 13.4215 36.6386 14.838 33.9589 17.5453C31.2793 20.2525 28.3673 24.2687 23.7441 30.8735C19.1001 37.5078 16.5139 41.517 14.9011 43.3186C13.2883 45.1202 13.5477 44.9657 11.2004 44.9657H2.11093H2V52.8517H2.11093H11.2004C14.7245 52.8517 18.2692 51.3787 20.7745 48.5801C23.2798 45.7814 25.6445 41.9046 30.2007 35.3956C34.7778 28.8569 37.6877 24.9871 39.5614 23.0942C41.4349 21.2014 41.5156 21.3076 42.7446 21.3076H51.9162V31.6621L66 17.5822L51.9161 3.49829ZM2 13.4215V21.3075H2.11093H11.2004C13.5477 21.3075 13.2883 21.1489 14.9011 22.9505C15.9387 24.1096 17.6481 26.5678 19.7805 29.6659C20.0695 29.2514 20.2058 29.0515 20.5116 28.6144C21.6732 26.955 22.7283 25.4578 23.703 24.0923C24.0422 23.6171 24.3263 23.2422 24.6477 22.7985C23.2066 20.7164 22.0064 19.0651 20.7745 17.689C18.2692 14.8903 14.7245 13.4215 11.2004 13.4215H2.11088H2V13.4215ZM51.9161 34.8329V44.9656H42.7444C41.5155 44.9656 41.4349 45.0677 39.5613 43.1748C38.322 41.9227 36.5668 39.7032 34.2381 36.521C33.9565 36.9204 33.7285 37.2366 33.4331 37.6587C31.8026 39.988 30.6785 41.6685 29.4983 43.4089C31.1727 45.6264 32.598 47.3489 33.9589 48.7237C36.6385 51.431 39.8426 52.8515 42.7445 52.8515H51.9161V62.9966L66 48.9169L51.9161 34.8329Z" fill="#018963"/>
<path d="M1.42088 1.43922C2.33094 0.555424 3.56509 0.0589365 4.85192 0.0589365C6.13875 0.0589365 7.3729 0.555424 8.28296 1.43922L33.9697 26.3919L59.6564 1.43922C60.104 0.988953 60.6395 0.629809 61.2316 0.382738C61.8237 0.135666 62.4605 0.00561742 63.1049 0.000177996C63.7492 -0.00526142 64.3883 0.114018 64.9847 0.351057C65.5811 0.588095 66.1229 0.938145 66.5786 1.38078C67.0343 1.82342 67.3946 2.34978 67.6386 2.92915C67.8826 3.50852 68.0054 4.12929 67.9998 4.75525C67.9942 5.38121 67.8603 5.99982 67.606 6.57498C67.3517 7.15014 66.982 7.67034 66.5184 8.10522L40.8317 33.0579L66.5184 58.0106C67.4025 58.8998 67.8916 60.0906 67.8805 61.3267C67.8695 62.5627 67.3591 63.7452 66.4593 64.6192C65.5596 65.4933 64.3424 65.9891 63.0699 65.9998C61.7975 66.0106 60.5716 65.5354 59.6564 64.6766L33.9697 39.7239L8.28296 64.6766C7.36768 65.5354 6.14182 66.0106 4.86939 65.9998C3.59696 65.9891 2.37977 65.4933 1.48 64.6192C0.580218 63.7452 0.0698385 62.5627 0.0587814 61.3267C0.0477244 60.0906 0.536875 58.8998 1.42088 58.0106L27.1076 33.0579L1.42088 8.10522C0.511091 7.22116 0 6.02228 0 4.77222C0 3.52216 0.511091 2.32327 1.42088 1.43922V1.43922Z" fill="#CC0000"/>
</svg>
