<svg width="98" height="66" viewBox="0 0 98 66" fill="none" xmlns="http://www.w3.org/2000/svg">
<path d="M96.0403 2H1.65393C0.74053 2 0 2.74053 0 3.65393V61.4324C0 62.3458 0.74053 63.0863 1.65393 63.0863H68.8748V64.3461C68.8748 64.9681 69.224 65.5377 69.7783 65.8201C70.0151 65.9407 70.2723 66 70.5285 66C70.8722 66 71.2135 65.8933 71.5017 65.6834L75.3802 62.862L79.2599 65.6823C79.7631 66.0479 80.4292 66.1004 80.9831 65.8182C81.5376 65.536 81.8864 64.9664 81.8864 64.3443V63.0862H96.0399C96.9535 63.0862 97.6938 62.3456 97.6938 61.4322V3.65393C97.6942 2.74053 96.9539 2 96.0403 2ZM92.0472 5.30786L89.8418 7.51323H7.85217L5.6468 5.30786H92.0472V5.30786ZM86.5162 40.7031C86.3327 40.4312 86.1251 40.1231 86.0676 39.9467C86.0016 39.7443 85.9871 39.3718 85.973 39.0114C85.9406 38.1831 85.8999 37.1524 85.2439 36.2508C84.5831 35.3429 83.6113 34.9865 82.8302 34.6999C82.4957 34.577 82.1496 34.4503 81.9847 34.3301C81.8259 34.2149 81.5924 33.9157 81.3861 33.652C80.8706 32.9923 80.2289 32.1715 79.1487 31.821C78.1006 31.4809 77.116 31.7588 76.3249 31.982C75.9712 32.082 75.6052 32.1848 75.3806 32.1848C75.156 32.1848 74.7901 32.0816 74.4363 31.982C73.6444 31.7586 72.6593 31.4811 71.6125 31.821C70.5325 32.1717 69.8907 32.9927 69.3751 33.6522C69.1686 33.9159 68.9349 34.2148 68.7763 34.3303C68.6115 34.4505 68.2653 34.5776 67.9309 34.7001C67.1497 34.9865 66.1779 35.3433 65.5171 36.251C64.8611 37.1524 64.8207 38.1833 64.788 39.0116C64.7741 39.3717 64.7594 39.7445 64.6934 39.9469C64.636 40.1234 64.4284 40.4314 64.2448 40.7033C63.7739 41.4009 63.1883 42.2689 63.1883 43.4189C63.1883 44.5691 63.7741 45.4373 64.2448 46.1347C64.4284 46.4066 64.6362 46.7147 64.6934 46.8911C64.7594 47.0935 64.7739 47.4662 64.788 47.8266C64.8205 48.6549 64.8611 49.6856 65.5171 50.5872C66.1779 51.4949 67.1497 51.8515 67.9309 52.1381C68.2653 52.261 68.6111 52.3877 68.7763 52.5079C68.8063 52.5297 68.8399 52.56 68.8744 52.5934V54.2652H8.8211V10.8213H88.8731V54.2654H81.8868V52.5936C81.9217 52.5598 81.9551 52.5296 81.9853 52.5077C82.1505 52.3877 82.4963 52.2608 82.8307 52.1379C83.6115 51.8515 84.5835 51.4947 85.2439 50.5872C85.9003 49.6856 85.9405 48.6547 85.9732 47.8262C85.9873 47.4662 86.0018 47.0937 86.0676 46.8914C86.1251 46.7149 86.3329 46.4068 86.5164 46.1349C86.9873 45.4373 87.5729 44.5691 87.5729 43.4191C87.5729 42.2691 86.9871 41.4007 86.5162 40.7031ZM5.51323 55.234L3.30786 57.4394V7.6468L5.51323 9.85217V55.234ZM68.8746 59.7785H5.6468L7.85217 57.5731H68.8746V59.7785ZM78.5788 61.0979L76.3524 59.4795C75.7725 59.058 74.9874 59.058 74.4071 59.4799L72.1828 61.0979V55.1451C72.3389 55.1659 72.4933 55.1766 72.645 55.1766C73.3017 55.1766 73.9116 55.0046 74.4363 54.8566C74.7901 54.7566 75.1564 54.6537 75.3808 54.6537C75.6054 54.6537 75.9714 54.757 76.3251 54.8566C76.971 55.0388 77.7463 55.2573 78.5788 55.1466V61.0979ZM81.6909 49.0325C81.1686 49.2241 80.5767 49.4414 80.0384 49.8333C79.5055 50.2212 79.1201 50.7141 78.7801 51.1488C78.5921 51.3892 78.2811 51.7872 78.1319 51.8679C77.9659 51.8822 77.5207 51.7565 77.2229 51.6725C76.6791 51.5193 76.0629 51.3455 75.3806 51.3455C74.6983 51.3455 74.082 51.5193 73.5384 51.6725C73.2401 51.7565 72.7942 51.8811 72.6295 51.8679C72.4805 51.7872 72.1691 51.3892 71.9813 51.149C71.6413 50.7141 71.2561 50.2212 70.7232 49.8335C70.1847 49.4416 69.5924 49.2245 69.0704 49.0327C68.7868 48.9287 68.3169 48.7562 68.194 48.6413C68.1249 48.4889 68.1054 47.9949 68.0936 47.697C68.0719 47.1393 68.0469 46.5073 67.8402 45.87C67.6391 45.2509 67.2928 44.7376 66.9873 44.2846C66.8079 44.019 66.5082 43.5748 66.4965 43.4218C66.5082 43.2638 66.8079 42.8198 66.9873 42.5542C67.293 42.1012 67.6391 41.5881 67.84 40.9687C68.0469 40.3314 68.0721 39.6993 68.0936 39.1417C68.1054 38.8439 68.1249 38.3499 68.194 38.1974C68.3167 38.0825 68.7868 37.9101 69.0704 37.8061C69.5926 37.6145 70.1845 37.3972 70.723 37.0052C71.2559 36.6173 71.6413 36.1245 71.9813 35.6898C72.1693 35.4494 72.4807 35.0512 72.6295 34.9706C72.7946 34.9565 73.2403 35.0821 73.5384 35.166C74.0822 35.3194 74.6985 35.4933 75.3806 35.4933C76.0628 35.4933 76.6791 35.3194 77.2229 35.166C77.5211 35.0821 77.9651 34.9565 78.1319 34.9706C78.2809 35.0512 78.5921 35.4492 78.7799 35.6896C79.1199 36.1245 79.5049 36.6173 80.0383 37.0052C80.5767 37.3972 81.1686 37.6143 81.6909 37.8057C81.9742 37.9099 82.4444 38.0822 82.5672 38.1972C82.6363 38.3493 82.6556 38.8437 82.6676 39.1415C82.6894 39.6991 82.7144 40.3312 82.9212 40.9685C83.1221 41.5877 83.4682 42.1008 83.7739 42.5538C83.9533 42.8194 84.253 43.2636 84.2647 43.417C84.2532 43.575 83.9533 44.0192 83.7739 44.285C83.4682 44.7378 83.1221 45.2507 82.921 45.8702C82.7142 46.5075 82.6892 47.1397 82.6676 47.6972C82.656 47.9955 82.6365 48.4893 82.5672 48.6413C82.4449 48.756 81.9744 48.9287 81.6909 49.0325ZM81.8866 59.7785V57.5731H89.842L92.0474 59.7785H81.8866ZM94.3863 57.4394L92.181 55.234V9.85236L94.3863 7.64699V57.4394Z" fill="#018963"/>
<path d="M79.7881 39.0119C77.3576 36.5818 73.4036 36.5818 70.9733 39.0119C68.5433 41.4421 68.5433 45.3962 70.9733 47.8266C72.1885 49.0416 73.7847 49.6492 75.3806 49.6492C76.9765 49.6492 78.5728 49.0416 79.7881 47.8266C82.2182 45.3962 82.2182 41.4421 79.7881 39.0119ZM77.449 45.4872C76.3087 46.6275 74.4531 46.6279 73.3128 45.4872C72.1721 44.347 72.1721 42.4913 73.3128 41.3507C73.8831 40.7804 74.6319 40.4955 75.381 40.4955C76.1299 40.4955 76.879 40.7805 77.4491 41.3507C78.5896 42.4911 78.5896 44.347 77.449 45.4872Z" fill="#018963"/>
<path d="M63.6226 16.7787H34.0716C33.1582 16.7787 32.4177 17.5192 32.4177 18.4326C32.4177 19.346 33.1582 20.0866 34.0716 20.0866H63.6224C64.536 20.0866 65.2763 19.346 65.2763 18.4326C65.2765 17.5192 64.5362 16.7787 63.6226 16.7787Z" fill="#018963"/>
<path d="M58.9915 29.5695H38.7028C37.7894 29.5695 37.0488 30.31 37.0488 31.2234C37.0488 32.1368 37.7894 32.8773 38.7028 32.8773H58.9915C59.9051 32.8773 60.6454 32.1368 60.6454 31.2234C60.6454 30.31 59.9051 29.5695 58.9915 29.5695Z" fill="#018963"/>
<path d="M69.3562 22.9535H28.338C27.4246 22.9535 26.684 23.694 26.684 24.6074C26.684 25.5208 27.4246 26.2614 28.338 26.2614H69.3563C70.2699 26.2614 71.0103 25.5208 71.0103 24.6074C71.0103 23.694 70.2699 22.9535 69.3562 22.9535Z" fill="#018963"/>
<path d="M41.349 44.7826H28.3378C27.4244 44.7826 26.6838 45.5231 26.6838 46.4365C26.6838 47.3499 27.4244 48.0905 28.3378 48.0905H41.349C42.2624 48.0905 43.003 47.3499 43.003 46.4365C43.003 45.5231 42.2624 44.7826 41.349 44.7826Z" fill="#018963"/>
<path d="M16.4209 1.43922C17.3309 0.555424 18.5651 0.0589365 19.8519 0.0589365C21.1388 0.0589365 22.3729 0.555424 23.283 1.43922L48.9697 26.3919L74.6564 1.43922C75.104 0.988953 75.6395 0.629809 76.2316 0.382738C76.8237 0.135666 77.4605 0.00561742 78.1049 0.000177996C78.7492 -0.00526142 79.3883 0.114018 79.9847 0.351057C80.5811 0.588095 81.1229 0.938145 81.5786 1.38078C82.0343 1.82342 82.3946 2.34978 82.6386 2.92915C82.8826 3.50852 83.0054 4.12929 82.9998 4.75525C82.9942 5.38121 82.8603 5.99982 82.606 6.57498C82.3517 7.15014 81.982 7.67034 81.5184 8.10522L55.8317 33.0579L81.5184 58.0106C82.4025 58.8998 82.8916 60.0906 82.8805 61.3267C82.8695 62.5627 82.3591 63.7452 81.4593 64.6192C80.5596 65.4933 79.3424 65.9891 78.0699 65.9998C76.7975 66.0106 75.5716 65.5354 74.6564 64.6766L48.9697 39.7239L23.283 64.6766C22.3677 65.5354 21.1418 66.0106 19.8694 65.9998C18.597 65.9891 17.3798 65.4933 16.48 64.6192C15.5802 63.7452 15.0698 62.5627 15.0588 61.3267C15.0477 60.0906 15.5369 58.8998 16.4209 58.0106L42.1076 33.0579L16.4209 8.10522C15.5111 7.22116 15 6.02228 15 4.77222C15 3.52216 15.5111 2.32327 16.4209 1.43922V1.43922Z" fill="#CC0000"/>
</svg>
