<svg width="68" height="66" viewBox="0 0 68 66" fill="none" xmlns="http://www.w3.org/2000/svg">
<path d="M59.8188 31.943L60.2844 31.9821C62.4716 32.2931 63.9924 34.3182 63.6816 36.5054C62.7304 43.1932 59.6872 49.4088 54.988 54.2615C50.2884 59.1139 44.174 62.3551 37.52 63.5203C30.866 64.6855 24.014 63.7151 17.9452 60.7479C15.0934 59.3539 12.4833 57.5523 10.1888 55.4147L6.82844 58.7751C4.30856 61.2951 0 59.5103 0 55.9467V39.9999H15.9469C19.5105 39.9999 21.2952 44.3084 18.7753 46.8284L15.8504 49.7532C17.5202 51.2724 19.4061 52.5575 21.459 53.5611C26.0106 55.7863 31.1496 56.5139 36.14 55.6403C41.1304 54.7663 45.7164 52.3355 49.2408 48.696C52.7656 45.0564 55.048 40.3952 55.7612 35.379C56.0724 33.1919 58.0976 31.671 60.2844 31.9821L59.8188 31.943ZM46.0548 3.2519C48.9116 4.6486 51.5256 6.45395 53.8232 8.59619L57.1716 5.24772C59.6916 2.72784 64 4.51252 64 8.07615V24H48.076C44.5124 24 42.7276 19.6915 45.2476 17.1716L48.1616 14.2576C46.4888 12.7338 44.5988 11.445 42.5412 10.4389C37.9894 8.21367 32.8504 7.48583 27.86 8.35975C22.8695 9.23363 18.2836 11.6644 14.759 15.3039C11.2345 18.9434 8.95208 23.605 8.23876 28.6209C7.92772 30.8081 5.90256 32.3289 3.71543 32.0179C1.5283 31.7069 0.0074234 29.6817 0.318458 27.4945C1.26956 20.8066 4.31272 14.5913 9.01212 9.73859C13.7115 4.88592 19.8261 1.64487 26.48 0.479665C33.134 -0.685534 39.986 0.284872 46.0548 3.2519Z" fill="#018963"/>
<path d="M1.42088 1.43922C2.33094 0.555424 3.56509 0.0589365 4.85192 0.0589365C6.13875 0.0589365 7.3729 0.555424 8.28296 1.43922L33.9697 26.3919L59.6564 1.43922C60.104 0.988953 60.6395 0.629809 61.2316 0.382738C61.8237 0.135666 62.4605 0.00561742 63.1049 0.000177996C63.7492 -0.00526142 64.3883 0.114018 64.9847 0.351057C65.5811 0.588095 66.1229 0.938145 66.5786 1.38078C67.0343 1.82342 67.3946 2.34978 67.6386 2.92915C67.8826 3.50852 68.0054 4.12929 67.9998 4.75525C67.9942 5.38121 67.8603 5.99982 67.606 6.57498C67.3517 7.15014 66.982 7.67034 66.5184 8.10522L40.8317 33.0579L66.5184 58.0106C67.4025 58.8998 67.8916 60.0906 67.8805 61.3267C67.8695 62.5627 67.3591 63.7452 66.4593 64.6192C65.5596 65.4933 64.3424 65.9891 63.0699 65.9998C61.7975 66.0106 60.5716 65.5354 59.6564 64.6766L33.9697 39.7239L8.28296 64.6766C7.36768 65.5354 6.14182 66.0106 4.86939 65.9998C3.59696 65.9891 2.37977 65.4933 1.48 64.6192C0.580218 63.7452 0.0698385 62.5627 0.0587814 61.3267C0.0477244 60.0906 0.536875 58.8998 1.42088 58.0106L27.1076 33.0579L1.42088 8.10522C0.511091 7.22116 0 6.02228 0 4.77222C0 3.52216 0.511091 2.32327 1.42088 1.43922V1.43922Z" fill="#CC0000"/>
</svg>
