<svg width="64" height="64" viewBox="0 0 64 64" fill="none" xmlns="http://www.w3.org/2000/svg">
<path d="M54.3145 44.5388C52.5392 44.5388 50.8815 45.022 49.4587 45.858L43.4934 39.3143C44.3549 37.8645 44.8509 36.1665 44.8509 34.351C44.8509 31.5298 43.65 28.9829 41.7312 27.2065L45.7255 19.3959C46.104 19.4351 46.4825 19.4612 46.8741 19.4612C52.226 19.4612 56.5727 15.0988 56.5727 9.73061C56.5727 4.36245 52.226 0 46.8741 0C41.5223 0 37.1756 4.36245 37.1756 9.73061C37.1756 12.7739 38.5853 15.5037 40.7652 17.28L36.9276 24.7771C36.3532 24.6727 35.7528 24.6073 35.1393 24.6073C29.9963 24.6073 25.7801 28.6433 25.4668 33.7241L18.627 35.0955C17.1519 31.6212 13.7059 29.1788 9.69855 29.1788C4.34673 29.1788 0 33.5412 0 38.9094C0 44.2775 4.34673 48.64 9.69855 48.64C14.5282 48.64 18.5356 45.0873 19.2796 40.4506L26.6155 38.9747C28.2602 42.0049 31.4713 44.0816 35.1393 44.0816C36.7709 44.0816 38.3112 43.6767 39.6557 42.9584L45.7646 49.6588C45.0206 51.0302 44.6029 52.5975 44.6029 54.2694C44.6029 59.6375 48.9496 64 54.3014 64C59.6533 64 64 59.6375 64 54.2694C64.013 48.9012 59.6663 44.5388 54.3145 44.5388ZM46.8741 5.36816C49.2759 5.36816 51.2209 7.32735 51.2209 9.73061C51.2209 12.1339 49.2759 14.0931 46.8741 14.0931C44.4723 14.0931 42.5274 12.1339 42.5274 9.73061C42.5274 7.32735 44.4854 5.36816 46.8741 5.36816ZM9.72465 43.2718C7.32286 43.2718 5.37793 41.3127 5.37793 38.9094C5.37793 36.5061 7.32286 34.5469 9.72465 34.5469C12.1264 34.5469 14.0714 36.5061 14.0714 38.9094C14.0714 41.3257 12.1264 43.2718 9.72465 43.2718ZM30.8187 34.351C30.8187 31.9478 32.7636 29.9886 35.1654 29.9886C37.5672 29.9886 39.5121 31.9478 39.5121 34.351C39.5121 36.7543 37.5672 38.7135 35.1654 38.7135C32.7636 38.7135 30.8187 36.7543 30.8187 34.351ZM54.3145 58.6318C51.9127 58.6318 49.9678 56.6727 49.9678 54.2694C49.9678 51.8661 51.9127 49.9069 54.3145 49.9069C56.7163 49.9069 58.6612 51.8661 58.6612 54.2694C58.6612 56.6727 56.7163 58.6318 54.3145 58.6318Z" fill="#01C38D"/>
</svg>
