<svg width="64" height="60" viewBox="0 0 64 60" fill="none" xmlns="http://www.w3.org/2000/svg">
<path d="M63.6414 10.0709C64.1661 9.04794 64.0778 7.8883 63.6183 6.92565C63.7478 5.83028 63.461 4.71811 62.4242 3.86506C61.459 3.07105 60.4939 2.27657 59.5292 1.48241C57.8328 0.0866055 55.1766 -0.353947 53.5266 1.48241C46.0321 9.82222 38.195 17.7998 30.0705 25.487C24.0302 19.8444 17.9166 14.2785 11.8468 8.70527C9.71644 6.74869 6.63288 7.36265 5.29257 9.69351C3.3403 10.6625 1.75783 11.9257 0.449273 14.0818C-0.17379 15.109 -0.125233 16.4057 0.449273 17.4366C4.36784 24.4623 11.942 30.6395 18.1696 36.3241C17.3362 37.07 16.5091 37.823 15.659 38.5532C7.26874 45.7584 1.60938 50.3299 12.1091 57.7176C12.2508 57.8173 12.3952 57.7953 12.539 57.8535C12.7402 57.9463 12.9332 58.0117 13.1562 58.0484C13.2256 58.051 13.2903 58.0627 13.3586 58.0573C13.5747 58.0749 13.7862 58.1299 14.0053 58.0869C19.6503 56.9801 24.8999 52.5564 29.6629 47.6851C34.3027 52.2584 39.2433 56.6276 44.6761 59.22C45.9695 59.8374 47.5116 59.4776 48.5074 58.6141C50.1771 58.7402 51.6995 57.7026 52.4636 56.2115C52.5767 56.1416 52.6496 56.1016 52.7722 56.025C55.1997 54.5085 55.4215 51.4883 53.6252 49.4066C49.5692 44.7063 45.2575 40.2382 40.8622 35.8493C48.7762 28.1164 58.6581 19.7764 63.6414 10.0709Z" fill="#CC0000"/>
</svg>
