<svg width="98" height="64" viewBox="0 0 98 64" fill="none" xmlns="http://www.w3.org/2000/svg">
<path d="M96.0403 0H1.65393C0.74053 0 0 0.740529 0 1.65393V59.4324C0 60.3458 0.74053 61.0863 1.65393 61.0863H68.8748V62.3461C68.8748 62.9681 69.224 63.5377 69.7783 63.8201C70.0151 63.9407 70.2723 64 70.5285 64C70.8722 64 71.2135 63.8933 71.5017 63.6834L75.3802 60.862L79.2599 63.6823C79.7631 64.0479 80.4292 64.1004 80.9831 63.8182C81.5376 63.536 81.8864 62.9664 81.8864 62.3443V61.0862H96.0399C96.9535 61.0862 97.6938 60.3456 97.6938 59.4322V1.65393C97.6942 0.740529 96.9539 0 96.0403 0ZM92.0472 3.30786L89.8418 5.51323H7.85217L5.6468 3.30786H92.0472V3.30786ZM86.5162 38.7031C86.3327 38.4312 86.1251 38.1231 86.0676 37.9467C86.0016 37.7443 85.9871 37.3718 85.973 37.0114C85.9406 36.1831 85.8999 35.1524 85.2439 34.2508C84.5831 33.3429 83.6113 32.9865 82.8302 32.6999C82.4957 32.577 82.1496 32.4503 81.9847 32.3301C81.8259 32.2149 81.5924 31.9157 81.3861 31.652C80.8706 30.9923 80.2289 30.1715 79.1487 29.821C78.1006 29.4809 77.116 29.7588 76.3249 29.982C75.9712 30.082 75.6052 30.1848 75.3806 30.1848C75.156 30.1848 74.7901 30.0816 74.4363 29.982C73.6444 29.7586 72.6593 29.4811 71.6125 29.821C70.5325 30.1717 69.8907 30.9927 69.3751 31.6522C69.1686 31.9159 68.9349 32.2148 68.7763 32.3303C68.6115 32.4505 68.2653 32.5776 67.9309 32.7001C67.1497 32.9865 66.1779 33.3433 65.5171 34.251C64.8611 35.1524 64.8207 36.1833 64.788 37.0116C64.7741 37.3717 64.7594 37.7445 64.6934 37.9469C64.636 38.1234 64.4284 38.4314 64.2448 38.7033C63.7739 39.4009 63.1883 40.2689 63.1883 41.4189C63.1883 42.5691 63.7741 43.4373 64.2448 44.1347C64.4284 44.4066 64.6362 44.7147 64.6934 44.8911C64.7594 45.0935 64.7739 45.4662 64.788 45.8266C64.8205 46.6549 64.8611 47.6856 65.5171 48.5872C66.1779 49.4949 67.1497 49.8515 67.9309 50.1381C68.2653 50.261 68.6111 50.3877 68.7763 50.5079C68.8063 50.5297 68.8399 50.56 68.8744 50.5934V52.2652H8.8211V8.82129H88.8731V52.2654H81.8868V50.5936C81.9217 50.5598 81.9551 50.5296 81.9853 50.5077C82.1505 50.3877 82.4963 50.2608 82.8307 50.1379C83.6115 49.8515 84.5835 49.4947 85.2439 48.5872C85.9003 47.6856 85.9405 46.6547 85.9732 45.8262C85.9873 45.4662 86.0018 45.0937 86.0676 44.8914C86.1251 44.7149 86.3329 44.4068 86.5164 44.1349C86.9873 43.4373 87.5729 42.5691 87.5729 41.4191C87.5729 40.2691 86.9871 39.4007 86.5162 38.7031ZM5.51323 53.234L3.30786 55.4394V5.6468L5.51323 7.85217V53.234ZM68.8746 57.7785H5.6468L7.85217 55.5731H68.8746V57.7785ZM78.5788 59.0979L76.3524 57.4795C75.7725 57.058 74.9874 57.058 74.4071 57.4799L72.1828 59.0979V53.1451C72.3389 53.1659 72.4933 53.1766 72.645 53.1766C73.3017 53.1766 73.9116 53.0046 74.4363 52.8566C74.7901 52.7566 75.1564 52.6537 75.3808 52.6537C75.6054 52.6537 75.9714 52.757 76.3251 52.8566C76.971 53.0388 77.7463 53.2573 78.5788 53.1466V59.0979ZM81.6909 47.0325C81.1686 47.2241 80.5767 47.4414 80.0384 47.8333C79.5055 48.2212 79.1201 48.7141 78.7801 49.1488C78.5921 49.3892 78.2811 49.7872 78.1319 49.8679C77.9659 49.8822 77.5207 49.7565 77.2229 49.6725C76.6791 49.5193 76.0629 49.3455 75.3806 49.3455C74.6983 49.3455 74.082 49.5193 73.5384 49.6725C73.2401 49.7565 72.7942 49.8811 72.6295 49.8679C72.4805 49.7872 72.1691 49.3892 71.9813 49.149C71.6413 48.7141 71.2561 48.2212 70.7232 47.8335C70.1847 47.4416 69.5924 47.2245 69.0704 47.0327C68.7868 46.9287 68.3169 46.7562 68.194 46.6413C68.1249 46.4889 68.1054 45.9949 68.0936 45.697C68.0719 45.1393 68.0469 44.5073 67.8402 43.87C67.6391 43.2509 67.2928 42.7376 66.9873 42.2846C66.8079 42.019 66.5082 41.5748 66.4965 41.4218C66.5082 41.2638 66.8079 40.8198 66.9873 40.5542C67.293 40.1012 67.6391 39.5881 67.84 38.9687C68.0469 38.3314 68.0721 37.6993 68.0936 37.1417C68.1054 36.8439 68.1249 36.3499 68.194 36.1974C68.3167 36.0825 68.7868 35.9101 69.0704 35.8061C69.5926 35.6145 70.1845 35.3972 70.723 35.0052C71.2559 34.6173 71.6413 34.1245 71.9813 33.6898C72.1693 33.4494 72.4807 33.0512 72.6295 32.9706C72.7946 32.9565 73.2403 33.0821 73.5384 33.166C74.0822 33.3194 74.6985 33.4933 75.3806 33.4933C76.0628 33.4933 76.6791 33.3194 77.2229 33.166C77.5211 33.0821 77.9651 32.9565 78.1319 32.9706C78.2809 33.0512 78.5921 33.4492 78.7799 33.6896C79.1199 34.1245 79.5049 34.6173 80.0383 35.0052C80.5767 35.3972 81.1686 35.6143 81.6909 35.8057C81.9742 35.9099 82.4444 36.0822 82.5672 36.1972C82.6363 36.3493 82.6556 36.8437 82.6676 37.1415C82.6894 37.6991 82.7144 38.3312 82.9212 38.9685C83.1221 39.5877 83.4682 40.1008 83.7739 40.5538C83.9533 40.8194 84.253 41.2636 84.2647 41.417C84.2532 41.575 83.9533 42.0192 83.7739 42.285C83.4682 42.7378 83.1221 43.2507 82.921 43.8702C82.7142 44.5075 82.6892 45.1397 82.6676 45.6972C82.656 45.9955 82.6365 46.4893 82.5672 46.6413C82.4449 46.756 81.9744 46.9287 81.6909 47.0325ZM81.8866 57.7785V55.5731H89.842L92.0474 57.7785H81.8866ZM94.3863 55.4394L92.181 53.234V7.85236L94.3863 5.64699V55.4394Z" fill="#01C38D"/>
<path d="M79.7881 37.0119C77.3576 34.5818 73.4036 34.5818 70.9733 37.0119C68.5433 39.4421 68.5433 43.3962 70.9733 45.8266C72.1885 47.0416 73.7847 47.6492 75.3806 47.6492C76.9765 47.6492 78.5728 47.0416 79.7881 45.8266C82.2182 43.3962 82.2182 39.4421 79.7881 37.0119ZM77.449 43.4872C76.3087 44.6275 74.4531 44.6279 73.3128 43.4872C72.1721 42.347 72.1721 40.4913 73.3128 39.3507C73.8831 38.7804 74.6319 38.4955 75.381 38.4955C76.1299 38.4955 76.879 38.7805 77.4491 39.3507C78.5896 40.4911 78.5896 42.347 77.449 43.4872Z" fill="#01C38D"/>
<path d="M63.6226 14.7787H34.0716C33.1582 14.7787 32.4177 15.5192 32.4177 16.4326C32.4177 17.346 33.1582 18.0866 34.0716 18.0866H63.6224C64.536 18.0866 65.2763 17.346 65.2763 16.4326C65.2765 15.5192 64.5362 14.7787 63.6226 14.7787Z" fill="#01C38D"/>
<path d="M58.9915 27.5695H38.7028C37.7894 27.5695 37.0488 28.31 37.0488 29.2234C37.0488 30.1368 37.7894 30.8773 38.7028 30.8773H58.9915C59.9051 30.8773 60.6454 30.1368 60.6454 29.2234C60.6454 28.31 59.9051 27.5695 58.9915 27.5695Z" fill="#01C38D"/>
<path d="M69.3562 20.9535H28.338C27.4246 20.9535 26.684 21.694 26.684 22.6074C26.684 23.5208 27.4246 24.2614 28.338 24.2614H69.3563C70.2699 24.2614 71.0103 23.5208 71.0103 22.6074C71.0103 21.694 70.2699 20.9535 69.3562 20.9535Z" fill="#01C38D"/>
<path d="M41.349 42.7826H28.3378C27.4244 42.7826 26.6838 43.5231 26.6838 44.4365C26.6838 45.3499 27.4244 46.0905 28.3378 46.0905H41.349C42.2624 46.0905 43.003 45.3499 43.003 44.4365C43.003 43.5231 42.2624 42.7826 41.349 42.7826Z" fill="#01C38D"/>
</svg>
