<svg width="64" height="64" viewBox="0 0 64 64" fill="none" xmlns="http://www.w3.org/2000/svg">
<path d="M64 4.84571C64 2.16816 61.8057 0 59.102 0H4.89796C2.19429 0 0 2.16816 0 4.84571V53.2114C0 58.1747 5.5249 64 14.7331 64H61.3224C64.3788 63.7518 64.3526 60.8653 63.5167 59.8204C63.5167 59.8204 63.5167 59.8073 63.5037 59.8073C58.7494 53.0547 63.3078 46.2629 63.5167 45.9624C63.5167 45.9624 63.9869 45.3486 64 44.4343V4.84571V4.84571ZM5.32898 5.32898H58.658V41.7567H14.7331C11.1282 41.7567 7.86286 42.6841 5.32898 44.2514V5.32898V5.32898ZM5.32898 52.8849C5.32898 49.7502 9.63918 47.0988 14.7331 47.0988H57.0775C56.0457 50.0245 55.3273 54.178 56.9469 58.671H14.7331C9.63918 58.671 5.32898 56.0196 5.32898 52.8849Z" fill="#01C38D"/>
</svg>
