<svg width="64" height="64" viewBox="0 0 64 64" fill="none" xmlns="http://www.w3.org/2000/svg">
<path d="M27.4325 61.7497L2.22371 37.0441C-0.741238 34.1364 -0.741238 29.7847 2.22371 26.89L27.4325 2.23666C30.3908 -0.657966 35.0252 -0.782115 37.9634 2.09291C40.8349 4.90259 40.5276 9.63985 37.7364 12.3646L25.4225 24.4135C25.4225 24.4135 56.4811 24.4528 56.4944 24.4528C58.5512 24.4528 60.5345 25.2369 61.9435 26.7005C65.3226 30.2289 64.4211 36.4037 60.0938 38.7495C58.9987 39.3441 57.7498 39.6577 56.4945 39.6512L25.4226 39.6251C25.4226 39.6251 37.7298 51.661 37.7364 51.6675C40.5344 54.4053 40.815 59.1231 37.9635 61.9196C35.0252 64.7947 30.3908 64.6444 27.4325 61.7497Z" fill="#01C38D"/>
</svg>
