<svg width="56" height="64" viewBox="0 0 56 64" fill="none" xmlns="http://www.w3.org/2000/svg">
<path d="M43.9134 0H11.1941V5.79322H0V14.385C0 20.5574 5.02166 25.5791 11.1941 25.5791H11.3903C12.4234 32.2877 17.5366 37.6363 24.1013 39.0486V48.3204H20.0866C18.8443 48.3204 17.8504 49.3273 17.8504 50.5566V53.499H14.4242V64H40.6964V53.499H37.2701V50.5566C37.2701 49.3143 36.2632 48.3204 35.0339 48.3204H31.0192V39.0486C37.5971 37.6363 42.6972 32.2746 43.7303 25.5791H43.9264C50.0989 25.5791 55.1206 20.5574 55.1206 14.385V5.79322H43.9264V0H43.9134ZM11.1941 19.9166C8.14712 19.9166 5.66244 17.432 5.66244 14.385V11.4557H11.1941V19.9166ZM34.9816 15.915L31.6208 18.7528L32.6669 23.029C32.8631 23.8267 31.9869 24.4675 31.2807 24.036L27.5537 21.7082L23.8136 24.0229C23.1075 24.4544 22.2313 23.8267 22.4275 23.0159L23.4736 18.7397L20.1259 15.915C19.4982 15.3788 19.8251 14.3457 20.649 14.2934L25.0298 13.9796L26.7037 9.89947C27.0176 9.12791 28.103 9.12791 28.4168 9.89947L30.0776 13.9665L34.4585 14.2803C35.2824 14.3457 35.6093 15.3788 34.9816 15.915ZM49.432 11.4557V14.385C49.432 17.432 46.9604 19.9166 43.9134 19.9166V11.4557H49.432Z" fill="#01C38D"/>
</svg>
