<svg width="29" height="27" viewBox="0 0 29 27" fill="none" xmlns="http://www.w3.org/2000/svg">
<path d="M28.4023 19.6784L18.3219 2.20736C17.5244 0.82519 16.0957 0 14.5 0C12.9043 0 11.4755 0.82519 10.6781 2.20736C10.4999 2.51611 10.6057 2.91093 10.9146 3.0891C11.2233 3.26719 11.6181 3.16132 11.7963 2.85257C12.3605 1.87486 13.3712 1.29102 14.5 1.29102C15.6288 1.29102 16.6394 1.87477 17.2037 2.85249L27.284 20.3235C27.8479 21.3008 27.8476 22.4675 27.2833 23.4445C26.719 24.4216 25.7086 25.0049 24.5804 25.0049H4.41954C3.29128 25.0049 2.28077 24.4216 1.71656 23.4445C1.15235 22.4675 1.152 21.3008 1.71587 20.3235L9.7667 6.37015C9.94487 6.0614 9.839 5.66658 9.53017 5.48841C9.22117 5.31007 8.82652 5.41611 8.64843 5.72494L0.5976 19.6784C-0.19953 21.0599 -0.199185 22.7091 0.598547 24.0903C1.39619 25.4715 2.82459 26.2961 4.41962 26.2961H24.5804C26.1754 26.2961 27.6039 25.4715 28.4015 24.0903C29.1991 22.7092 29.1994 21.0599 28.4023 19.6784Z" fill="#FF8F00"/>
<path d="M16.7972 7.45355C16.2253 6.79698 15.398 6.42041 14.5274 6.42041H14.4725C13.6019 6.42041 12.7745 6.79698 12.2027 7.45355C11.6308 8.11013 11.3714 8.98137 11.4909 9.84382L12.0528 13.8978C12.1018 14.251 12.428 14.4979 12.7808 14.4486C13.1341 14.3996 13.3807 14.0737 13.3316 13.7205L12.7697 9.66651C12.7015 9.174 12.8496 8.67649 13.1762 8.30147C13.5028 7.92653 13.9753 7.71152 14.4725 7.71152H14.5274C15.0245 7.71152 15.4971 7.92662 15.8236 8.30147C16.1503 8.6764 16.2984 9.174 16.2302 9.66651L15.2851 16.4844C15.232 16.868 14.8998 17.1572 14.5125 17.1572H14.4875C14.1003 17.1572 13.7682 16.868 13.7149 16.4844C13.666 16.1313 13.34 15.8847 12.9869 15.9335C12.6336 15.9825 12.3871 16.3084 12.4361 16.6616C12.5773 17.6802 13.4592 18.4483 14.4875 18.4483H14.5125C15.5409 18.4483 16.4228 17.6802 16.5639 16.6616L17.5089 9.84374C17.6285 8.98136 17.369 8.11013 16.7972 7.45355Z" fill="#FF8F00"/>
<path d="M14.4999 18.9763C13.3238 18.9763 12.367 19.9331 12.367 21.1092C12.367 22.2853 13.3238 23.2421 14.4999 23.2421C15.676 23.2421 16.6328 22.2853 16.6328 21.1092C16.6329 19.9331 15.676 18.9763 14.4999 18.9763ZM14.4999 21.951C14.0357 21.951 13.6581 21.5734 13.6581 21.1092C13.6581 20.645 14.0358 20.2674 14.4999 20.2674C14.964 20.2674 15.3417 20.645 15.3417 21.1092C15.3418 21.5734 14.9641 21.951 14.4999 21.951Z" fill="#FF8F00"/>
</svg>
