<svg width="64" height="61" viewBox="0 0 64 61" fill="none" xmlns="http://www.w3.org/2000/svg">
<path d="M63.6414 10.6004C64.1661 9.57748 64.0778 8.41784 63.6183 7.45519C63.7478 6.35982 63.461 5.24765 62.4242 4.3946C61.459 3.60059 60.4939 2.80611 59.5292 2.01195C57.8328 0.616147 55.1766 0.175594 53.5266 2.01195C46.0321 10.3518 38.195 18.3293 30.0705 26.0165C24.0302 20.3739 17.9166 14.808 11.8468 9.23482C9.71644 7.27823 6.63288 7.8922 5.29257 10.2231C3.3403 11.192 1.75783 12.4553 0.449273 14.6113C-0.17379 15.6385 -0.125233 16.9352 0.449273 17.9662C4.36784 24.9919 11.942 31.169 18.1696 36.8537C17.3362 37.5996 16.5091 38.3526 15.659 39.0828C7.26874 46.2879 1.60938 50.8595 12.1091 58.2471C12.2508 58.3468 12.3952 58.3248 12.539 58.3831C12.7402 58.4759 12.9332 58.5412 13.1562 58.5779C13.2256 58.5805 13.2903 58.5922 13.3586 58.5868C13.5747 58.6044 13.7862 58.6594 14.0053 58.6164C19.6503 57.5097 24.8999 53.086 29.6629 48.2146C34.3027 52.788 39.2433 57.1571 44.6761 59.7496C45.9695 60.3669 47.5116 60.0072 48.5074 59.1436C50.1771 59.2697 51.6995 58.2321 52.4636 56.7411C52.5767 56.6711 52.6496 56.6312 52.7722 56.5546C55.1997 55.0381 55.4215 52.0179 53.6252 49.9361C49.5692 45.2359 45.2575 40.7678 40.8622 36.3789C48.7762 28.6459 58.6581 20.306 63.6414 10.6004Z" fill="#01C38D"/>
</svg>
