<svg width="52" height="64" viewBox="0 0 52 64" fill="none" xmlns="http://www.w3.org/2000/svg">
<path d="M48.3482 27.7574C48.5856 26.3979 48.7165 24.9995 48.7165 23.5699C48.7165 10.574 38.4489 0 25.8285 0C13.2076 0 2.93948 10.574 2.93948 23.5699C2.93948 24.9995 3.07097 26.3968 3.30887 27.7574C1.32154 29.0265 0 31.2456 0 33.7801V56.8541C0 60.8009 3.19967 64 7.14535 64H44.5112C48.4557 64 51.6549 60.8009 51.6549 56.8541H51.6571V33.7801C51.6571 31.2462 50.3367 29.0265 48.3482 27.7574ZM28.9814 47.9047V52.919C28.9814 54.6617 27.5696 56.0735 25.8274 56.0735C24.0852 56.0735 22.6734 54.6617 22.6734 52.919V47.9025C20.6505 46.7877 19.2782 44.6365 19.2782 42.1628C19.2782 38.5459 22.2105 35.6131 25.8285 35.6131C29.4466 35.6131 32.3794 38.5459 32.3794 42.1628C32.3794 44.6376 31.0061 46.7904 28.9814 47.9047ZM40.0078 26.6336H11.6487C11.4543 25.6447 11.3507 24.619 11.3507 23.5699C11.3507 15.2111 17.8453 8.41117 25.8285 8.41117C33.8113 8.41117 40.3053 15.2105 40.3053 23.5699C40.3053 24.619 40.2028 25.6447 40.0078 26.6336Z" fill="#01C38D"/>
</svg>
