<svg width="64" height="60" viewBox="0 0 64 60" fill="none" xmlns="http://www.w3.org/2000/svg">
<path d="M49.9161 0V9.92325H40.7444C37.8427 9.92325 34.6386 11.3397 31.9589 14.047C29.2793 16.7542 26.3673 20.7705 21.7441 27.3752C17.1001 34.0095 14.5139 38.0187 12.9011 39.8203C11.2883 41.6219 11.5477 41.4674 9.20037 41.4674H0.110933H0V49.3534H0.110933H9.20037C12.7245 49.3534 16.2692 47.8804 18.7745 45.0818C21.2798 42.2831 23.6445 38.4063 28.2007 31.8973C32.7778 25.3586 35.6877 21.4889 37.5614 19.5959C39.4349 17.7031 39.5156 17.8093 40.7446 17.8093H49.9162V28.1638L64 14.0839L49.9161 0ZM0 9.9232V17.8092H0.110933H9.20037C11.5477 17.8092 11.2883 17.6506 12.9011 19.4522C13.9387 20.6113 15.6481 23.0695 17.7805 26.1676C18.0695 25.7531 18.2058 25.5532 18.5116 25.1161C19.6732 23.4567 20.7283 21.9595 21.703 20.594C22.0422 20.1188 22.3263 19.7439 22.6477 19.3002C21.2066 17.2181 20.0064 15.5668 18.7745 14.1907C16.2692 11.3921 12.7245 9.9232 9.20037 9.9232H0.11088H0V9.9232ZM49.9161 31.3346V41.4673H40.7444C39.5155 41.4673 39.4349 41.5694 37.5613 39.6765C36.322 38.4244 34.5668 36.2049 32.2381 33.0227C31.9565 33.4221 31.7285 33.7383 31.4331 34.1604C29.8026 36.4897 28.6785 38.1702 27.4983 39.9106C29.1727 42.1281 30.598 43.8506 31.9589 45.2254C34.6385 47.9327 37.8426 49.3532 40.7445 49.3532H49.9161V59.4983L64 45.4186L49.9161 31.3346Z" fill="#01C38D"/>
</svg>
