<svg width="64" height="37" viewBox="0 0 64 37" fill="none" xmlns="http://www.w3.org/2000/svg">
<path d="M7.03614 1.17586C6.24301 0.436814 5.194 0.0344736 4.11008 0.053598C3.02617 0.0727223 1.992 0.511818 1.22544 1.27838C0.458876 2.04494 0.0197757 3.07911 0.000651379 4.16303C-0.018473 5.24694 0.383871 6.29596 1.12291 7.08908L29.0155 34.9817C29.404 35.3705 29.8654 35.6789 30.3732 35.8893C30.881 36.0997 31.4252 36.208 31.9749 36.208C32.5246 36.208 33.0688 36.0997 33.5766 35.8893C34.0844 35.6789 34.5458 35.3705 34.9343 34.9817L62.8269 7.08908C63.5886 6.29964 64.0099 5.24257 63.9998 4.14557C63.9898 3.04857 63.5493 1.9994 62.7732 1.22404C61.9971 0.448674 60.9475 0.00915332 59.8505 0.000141355C58.7535 -0.00887061 57.6968 0.413347 56.9081 1.17586L31.9721 26.1118L7.03614 1.17586Z" fill="#01C38D"/>
</svg>
