<svg width="84" height="64" viewBox="0 0 84 64" fill="none" xmlns="http://www.w3.org/2000/svg">
<path d="M79.2241 19.069C79.8276 19.6724 80.7931 19.6724 81.3793 19.069L83.5345 16.9138C84.1379 16.3103 84.1379 15.3448 83.5345 14.7586L78.6552 9.87931C78.0517 9.27586 77.0862 9.27586 76.5 9.87931L74.3448 12.0345C73.7414 12.6379 73.7414 13.6034 74.3448 14.1897L74.5517 14.3966L73.0345 15.9138C69.2069 12.8793 64.569 10.8621 59.4827 10.2759V7.51724H61.1552C62 7.51724 62.6724 6.82759 62.6724 6V1.51724C62.6724 0.672414 61.9827 0 61.1552 0H51.4655C50.6207 0 49.9483 0.689655 49.9483 1.51724V6C49.9483 6.84483 50.6379 7.51724 51.4655 7.51724H53.1379V10.2759C48.0517 10.8793 43.3965 12.8965 39.5862 15.9138L38.069 14.3966L38.2758 14.1897C38.8793 13.5862 38.8793 12.6207 38.2758 12.0345L36.1207 9.87931C35.5172 9.27586 34.5517 9.27586 33.9655 9.87931L29.0862 14.7586C28.4827 15.3621 28.4827 16.3276 29.0862 16.9138L31.2414 19.069C31.8448 19.6724 32.8103 19.6724 33.3965 19.069L33.6034 18.8621L35.1207 20.3793C31.5 24.9655 29.3448 30.7586 29.3448 37.0345C29.3448 51.8966 41.4483 64 56.3103 64C71.1724 64 83.2758 51.8966 83.2758 37.0345C83.2758 30.7586 81.1034 24.9655 77.5 20.3793L79.0172 18.8621L79.2241 19.069ZM56.3103 57.7586C44.8965 57.7586 35.6034 48.4655 35.6034 37.0517C35.6034 25.6379 44.8965 16.3448 56.3103 16.3448C67.7241 16.3448 77.0172 25.6379 77.0172 37.0517C77.0172 48.4655 67.7241 57.7586 56.3103 57.7586Z" fill="#01C38D"/>
<path d="M10.9483 44.2762C9.46553 44.2762 8.27588 45.4831 8.27588 46.9486C8.27588 48.4313 9.48278 49.621 10.9483 49.621H25.4483C25.7414 49.621 26 49.5693 26.2586 49.4831C25.569 47.8106 25 46.0693 24.6035 44.2589H10.9483V44.2762Z" fill="#01C38D"/>
<path d="M26.2414 24.655C26 24.5861 25.7241 24.5171 25.4483 24.5171H2.67241C1.18966 24.5171 0 25.724 0 27.1895C0 28.6723 1.2069 29.8619 2.67241 29.8619H24.5862C24.9828 28.1033 25.5345 26.3447 26.2414 24.655Z" fill="#01C38D"/>
<path d="M23.7931 37.0518C23.7931 36.1552 23.8448 35.2759 23.9138 34.3966H6.39653C4.91378 34.3966 3.72412 35.6035 3.72412 37.069C3.72412 38.5345 4.93102 39.7414 6.39653 39.7414H23.8965C23.8448 38.8621 23.7931 37.9657 23.7931 37.0518Z" fill="#01C38D"/>
<path d="M69.3276 29.3451C68.8793 28.6037 67.9483 28.3106 67.1724 28.7071L57.8448 33.2761C56.6896 32.8106 55.3448 32.8623 54.1896 33.5347C52.2414 34.6899 51.5862 37.2071 52.7414 39.1554C53.8965 41.1037 56.4138 41.7589 58.3621 40.6037C59.5172 39.914 60.2069 38.7589 60.3448 37.5347L68.8448 31.552C69.569 31.0518 69.7759 30.1035 69.3276 29.3451ZM58.0345 37.5001C57.7759 38.4656 56.7931 39.0346 55.8448 38.7932C54.8793 38.5346 54.3103 37.5518 54.5517 36.6035C54.8103 35.638 55.7931 35.069 56.7414 35.3104C57.7069 35.552 58.2759 36.5518 58.0345 37.5001Z" fill="#01C38D"/>
<path d="M62.1379 26.7757C62.9483 27.2413 63.9828 26.9482 64.431 26.1378C64.8966 25.3275 64.6035 24.293 63.7931 23.8447C62.9828 23.3792 61.9655 23.6723 61.5 24.4826C61.1897 25.0344 61.2241 25.6723 61.5172 26.1723C61.6724 26.3964 61.8793 26.6207 62.1379 26.7757Z" fill="#01C38D"/>
<path d="M56.2069 25.2243C57.138 25.2243 57.8793 24.4656 57.8793 23.5346C57.8793 22.6036 57.1207 21.8622 56.1897 21.8622C55.2586 21.8622 54.5173 22.6208 54.5173 23.5518C54.5173 23.8622 54.6035 24.1553 54.7414 24.3967C55.0345 24.8968 55.5862 25.2417 56.2069 25.2243Z" fill="#01C38D"/>
<path d="M56.431 48.9138C55.5 48.9311 54.7586 49.6897 54.7586 50.6207C54.7586 50.9311 54.8448 51.2069 54.9827 51.4483C55.2758 51.9483 55.8276 52.2931 56.4483 52.2759C57.3793 52.2586 58.1207 51.5 58.1034 50.569C58.1207 49.6723 57.3621 48.9138 56.431 48.9138Z" fill="#01C38D"/>
<path d="M62.3276 47.2762C61.5345 47.7417 61.2586 48.7762 61.7414 49.5693C62.2069 50.3797 63.2414 50.6383 64.0517 50.1555C64.8449 49.69 65.1207 48.6555 64.638 47.8624C64.1552 47.0691 63.1207 46.8105 62.3276 47.2762Z" fill="#01C38D"/>
<path d="M68.9138 42.276C68.1034 41.8277 67.069 42.1036 66.6207 42.9139C66.3103 43.4657 66.3448 44.0864 66.6379 44.6036C66.7758 44.845 67 45.0691 67.2586 45.207C68.069 45.6726 69.1034 45.3795 69.5517 44.5691C70 43.7588 69.7241 42.7243 68.9138 42.276Z" fill="#01C38D"/>
<path d="M44.4482 37.207C44.4482 36.2759 43.6724 35.5345 42.7586 35.5345C41.8276 35.5518 41.0862 36.3104 41.0862 37.2414C41.0862 37.5518 41.1724 37.8277 41.3103 38.069C41.6034 38.569 42.1551 38.9139 42.7758 38.8966C43.7241 38.8964 44.4655 38.138 44.4482 37.207Z" fill="#01C38D"/>
<path d="M43.8103 42.5174C43.0172 42.9829 42.7414 44.0174 43.2241 44.8105C43.6896 45.6036 44.7241 45.8794 45.5345 45.3967C46.3276 44.9312 46.5862 43.8967 46.1207 43.0863C45.6379 42.3105 44.6034 42.0348 43.8103 42.5174Z" fill="#01C38D"/>
<path d="M68.1552 36.9657C68.1552 37.276 68.2414 37.5519 68.3966 37.8105C68.6897 38.3105 69.2414 38.6381 69.8621 38.6381C70.7931 38.6381 71.5345 37.8622 71.5345 36.9484C71.5345 36.0174 70.7759 35.276 69.8449 35.276C68.8966 35.276 68.138 36.0519 68.1552 36.9657Z" fill="#01C38D"/>
<path d="M43.6896 31.914C44.5 32.3795 45.5345 32.0864 45.9827 31.276C46.431 30.4657 46.1551 29.4484 45.3276 28.9829C44.5172 28.5346 43.5 28.8105 43.0345 29.6209C42.7414 30.1553 42.7586 30.7933 43.0517 31.3105C43.2069 31.5519 43.4138 31.759 43.6896 31.914Z" fill="#01C38D"/>
<path d="M50.2586 26.8964C50.2586 26.8964 50.2758 26.8964 50.2758 26.8792C50.2931 26.8792 50.2931 26.8792 50.2931 26.8619C50.2931 26.8619 50.2931 26.8619 50.3103 26.8619C51.1034 26.3964 51.362 25.3619 50.8965 24.5688C50.431 23.7585 49.3965 23.4999 48.5862 23.9654C48.5862 23.9654 48.5689 23.9654 48.5689 23.9826C48.5517 23.9826 48.5517 23.9999 48.5345 23.9999C47.7414 24.4654 47.4655 25.4999 47.9483 26.293C48.431 27.1035 49.4655 27.3621 50.2586 26.8964Z" fill="#01C38D"/>
<path d="M50.4827 47.3966C49.6724 46.9311 48.6379 47.2242 48.1896 48.0345C47.8793 48.5862 47.9138 49.2242 48.2069 49.7242C48.3448 49.9656 48.569 50.1897 48.8276 50.3449C49.6379 50.7931 50.6724 50.5 51.1207 49.7069C51.5862 48.8793 51.2931 47.8621 50.4827 47.3966Z" fill="#01C38D"/>
</svg>
